<?xml version="1.0" encoding="UTF-8"?>
<svg xmlns="http://www.w3.org/2000/svg" xmlns:xlink="http://www.w3.org/1999/xlink" width="113.784pt" height="12.703pt" viewBox="0 0 113.784 12.703" version="1.2">
<defs>
<clipPath id="clip1">
  <path d="M 1.195313 6 L 112.378906 6 L 112.378906 7 L 1.195313 7 Z M 1.195313 6 "/>
</clipPath>
<clipPath id="clip2">
  <path d="M 40 0 L 73 0 L 73 12.414063 L 40 12.414063 Z M 40 0 "/>
</clipPath>
</defs>
<g id="surface1">
<g clip-path="url(#clip1)" clip-rule="nonzero">
<path style="fill:none;stroke-width:0.3985;stroke-linecap:butt;stroke-linejoin:miter;stroke:rgb(0%,0%,0%);stroke-opacity:1;stroke-miterlimit:10;" d="M 0.00198599 -0.000153527 L 0.197867 -0.000153527 M 0.00198599 -0.000153527 L 40.821268 -0.000153527 M 72.566046 -0.000153527 L 113.385328 -0.000153527 M 113.189447 -0.000153527 L 113.385328 -0.000153527 " transform="matrix(0.977154,0,0,-0.977154,1.388684,6.206881)"/>
</g>
<g clip-path="url(#clip2)" clip-rule="nonzero">
<path style="fill:none;stroke-width:0.797;stroke-linecap:butt;stroke-linejoin:miter;stroke:rgb(0%,0%,0%);stroke-opacity:1;stroke-miterlimit:10;" d="M 40.821268 5.952242 L 72.566046 5.952242 L 72.566046 -5.952549 L 40.821268 -5.952549 Z M 40.821268 5.952242 " transform="matrix(0.977154,0,0,-0.977154,1.388684,6.206881)"/>
</g>
</g>
</svg>
