<?xml version="1.0" encoding="UTF-8"?>
<svg xmlns="http://www.w3.org/2000/svg" xmlns:xlink="http://www.w3.org/1999/xlink" width="170.477pt" height="24.608pt" viewBox="0 0 170.477 24.608" version="1.2">
<defs>
<clipPath id="clip1">
  <path d="M 1.078125 11 L 168.882813 11 L 168.882813 13 L 1.078125 13 Z M 1.078125 11 "/>
</clipPath>
<clipPath id="clip2">
  <path d="M 53 0 L 117 0 L 117 24.222656 L 53 24.222656 Z M 53 0 "/>
</clipPath>
</defs>
<g id="surface1">
<g clip-path="url(#clip1)" clip-rule="nonzero">
<path style="fill:none;stroke-width:0.3985;stroke-linecap:butt;stroke-linejoin:miter;stroke:rgb(0%,0%,0%);stroke-opacity:1;stroke-miterlimit:10;" d="M -0.00160738 0.00172533 L 0.399209 0.00172533 M -0.00160738 0.00172533 L 53.291053 0.00172533 M 116.790632 0.00172533 L 170.079324 0.00172533 M 169.682477 0.00172533 L 170.079324 0.00172533 " transform="matrix(0.98432,0,0,-0.98432,1.27502,12.111073)"/>
</g>
<g clip-path="url(#clip2)" clip-rule="nonzero">
<path style="fill:none;stroke-width:0.797;stroke-linecap:butt;stroke-linejoin:miter;stroke:rgb(0%,0%,0%);stroke-opacity:1;stroke-miterlimit:10;" d="M 116.790632 -11.90767 L 53.291053 -11.90767 L 53.291053 11.907152 L 116.790632 11.907152 Z M 116.790632 -11.90767 " transform="matrix(0.98432,0,0,-0.98432,1.27502,12.111073)"/>
</g>
</g>
</svg>
